<svg xmlns="http://www.w3.org/2000/svg" viewBox="0 0 81.53 42.29"><defs><style>.cls-1{fill:red;}</style></defs><g id="Layer_2" data-name="Layer 2"><g id="Layer_1-2" data-name="Layer 1"><path class="cls-1" d="M49.2,0C39.9.18,30.49,1.19,21.79,4.48a40.83,40.83,0,0,0-12,6.78,24.28,24.28,0,0,0-7.88,11c-.64,2.16-1.08,4.44-.2,6.46a6.87,6.87,0,0,0,1.62,2.76,18.28,18.28,0,0,0,2.66,2,43,43,0,0,0,12.7,5.18A76.08,76.08,0,0,0,32.41,40.5c4.63.25,9.29.33,13.94.3s9.31-.14,13.9-.6,9.17-1.42,13.13-3.6a16.07,16.07,0,0,0,5.06-4.34,8,8,0,0,0,1.69-6.07,12.9,12.9,0,0,0-3.1-5.8,28.71,28.71,0,0,0-5-4.61A48.15,48.15,0,0,0,59.64,9.64,63.41,63.41,0,0,0,46.12,6.55a49.21,49.21,0,0,0-13.87.3A39.28,39.28,0,0,0,25.51,8.6a32.16,32.16,0,0,0-3.22,1.34,6.64,6.64,0,0,0-2.81,2,6.68,6.68,0,0,1,2.76-2.1,30.48,30.48,0,0,1,3.19-1.44,39.42,39.42,0,0,1,6.75-1.93,49.85,49.85,0,0,1,14-.64A63.32,63.32,0,0,1,59.94,8.74a49,49,0,0,1,12.72,6.1A29.91,29.91,0,0,1,78,19.57,14,14,0,0,1,81.4,26,9.31,9.31,0,0,1,79.52,33a17.22,17.22,0,0,1-5.46,4.74A35.91,35.91,0,0,1,60.4,41.62c-4.69.49-9.36.62-14,.67s-9.36-.09-14-.37a77.79,77.79,0,0,1-14-1.94A43.81,43.81,0,0,1,5.28,34.56a18.56,18.56,0,0,1-2.87-2.22A7.81,7.81,0,0,1,.53,29.11a8,8,0,0,1-.47-1.82,9,9,0,0,1,0-1.87,17.29,17.29,0,0,1,.77-3.54A25.19,25.19,0,0,1,9.19,10.53,41.39,41.39,0,0,1,21.54,3.79C30.43.7,39.9-.15,49.2,0Z"/></g></g></svg>